<svg xmlns="http://www.w3.org/2000/svg" xmlns:xlink="http://www.w3.org/1999/xlink" width="1000" zoomAndPan="magnify" viewBox="0 0 750 225" height="300" preserveAspectRatio="xMidYMid meet" version="1.0"><defs><clipPath id="d829b7121f"><path d="M 456 25 L 522 25 L 522 91 L 456 91 Z M 456 25 " clip-rule="nonzero"/></clipPath><clipPath id="2c8b2c8ae9"><path d="M 446.085938 40.183594 L 506.421875 15.113281 L 531.492188 75.4375 L 471.167969 100.519531 Z M 446.085938 40.183594 " clip-rule="nonzero"/></clipPath><clipPath id="276f2381ad"><path d="M 476.25 27.644531 C 459.59375 34.570312 451.699219 53.6875 458.628906 70.355469 C 465.554688 87.011719 484.671875 94.90625 501.332031 87.980469 C 517.988281 81.050781 525.878906 61.933594 518.964844 45.277344 C 512.035156 28.621094 492.917969 20.726562 476.25 27.644531 Z M 476.25 27.644531 " clip-rule="nonzero"/></clipPath><clipPath id="a16d8a3a83"><path d="M 504.566406 25 L 571 25 L 571 91 L 504.566406 91 Z M 504.566406 25 " clip-rule="nonzero"/></clipPath><clipPath id="9fd57a6590"><path d="M 494.613281 40.183594 L 554.949219 15.113281 L 580.03125 75.4375 L 519.695312 100.519531 Z M 494.613281 40.183594 " clip-rule="nonzero"/></clipPath><clipPath id="8a93f05d45"><path d="M 524.789062 27.644531 C 508.128906 34.570312 500.238281 53.6875 507.15625 70.355469 C 514.082031 87.011719 533.199219 94.90625 549.867188 87.980469 C 566.523438 81.050781 574.417969 61.933594 567.492188 45.277344 C 560.5625 28.621094 541.445312 20.726562 524.789062 27.644531 Z M 524.789062 27.644531 " clip-rule="nonzero"/></clipPath><clipPath id="6bbd9c5094"><path d="M 502 15 L 553 15 L 553 88 L 502 88 Z M 502 15 " clip-rule="nonzero"/></clipPath><clipPath id="501eea3e2a"><path d="M 503.355469 15.113281 L 554.261719 16.535156 L 552.277344 87.796875 L 501.371094 86.386719 Z M 503.355469 15.113281 " clip-rule="nonzero"/></clipPath><clipPath id="60a000d0b7"><path d="M 503.355469 15.113281 L 554.261719 16.535156 L 552.277344 87.796875 L 501.371094 86.386719 Z M 503.355469 15.113281 " clip-rule="nonzero"/></clipPath><clipPath id="5b3d5f79a5"><path d="M 516 30.179688 L 539 30.179688 L 539 64 L 516 64 Z M 516 30.179688 " clip-rule="nonzero"/></clipPath><clipPath id="11c9956ba5"><path d="M 516.417969 30 L 538.8125 30.625 L 537.902344 63.207031 L 515.503906 62.578125 Z M 516.417969 30 " clip-rule="nonzero"/></clipPath><clipPath id="218434cb7d"><path d="M 516.417969 30 L 538.8125 30.625 L 537.902344 63.207031 L 515.503906 62.578125 Z M 516.417969 30 " clip-rule="nonzero"/></clipPath></defs><rect x="-75" width="900" fill="#ffffff" y="-22.5" height="270" fill-opacity="1"/><rect x="-75" width="900" fill="#ffffff" y="-22.5" height="270" fill-opacity="1"/><path fill="#ff00c7" d="M 161.382812 73.261719 C 163.355469 73.261719 164.882812 73.59375 165.964844 74.238281 C 167.070312 74.898438 167.621094 75.746094 167.621094 76.785156 C 167.621094 77.273438 167.472656 77.890625 167.195312 78.652344 C 166.910156 79.3125 166.496094 79.90625 165.964844 80.433594 C 165.457031 80.945312 164.988281 81.316406 164.566406 81.539062 C 164.140625 81.773438 163.824219 81.984375 163.632812 82.175781 C 162.125 83.023438 160.894531 83.980469 159.941406 85.019531 C 159.007812 86.070312 158.210938 87.679688 157.5625 89.855469 L 140.078125 151.007812 C 139.707031 152.230469 139.527344 153.40625 139.527344 154.53125 C 139.527344 155.667969 139.675781 156.566406 139.996094 157.246094 C 140.332031 157.90625 140.84375 158.753906 141.523438 159.792969 C 141.605469 159.878906 141.863281 160.238281 142.285156 160.855469 C 142.710938 161.480469 142.921875 162.117188 142.921875 162.765625 C 142.921875 162.964844 142.835938 163.433594 142.667969 164.164062 C 142.179688 165.5 141.277344 166.433594 139.953125 166.964844 C 138.613281 167.476562 136.640625 167.730469 134.011719 167.730469 L 100.65625 167.730469 C 98.671875 167.730469 97.132812 167.410156 96.027344 166.753906 C 94.945312 166.074219 94.417969 165.171875 94.417969 164.039062 C 94.417969 163.476562 94.554688 162.871094 94.839844 162.210938 C 95.203125 161.449219 95.710938 160.8125 96.367188 160.304688 C 97.046875 159.773438 97.707031 159.316406 98.363281 158.945312 C 99.890625 158.097656 101.121094 157.140625 102.054688 156.058594 C 103.011719 154.957031 103.816406 153.28125 104.472656 151.007812 L 111.304688 127.285156 L 86.183594 127.285156 L 79.394531 151.007812 C 78.992188 152.230469 78.800781 153.40625 78.800781 154.53125 C 78.800781 155.667969 78.96875 156.566406 79.308594 157.246094 C 79.648438 157.90625 80.136719 158.753906 80.792969 159.792969 C 80.878906 159.878906 81.132812 160.238281 81.558594 160.855469 C 81.980469 161.480469 82.195312 162.117188 82.195312 162.765625 C 82.195312 162.964844 82.109375 163.433594 81.941406 164.164062 C 81.453125 165.5 80.550781 166.433594 79.222656 166.964844 C 77.886719 167.476562 75.914062 167.730469 73.28125 167.730469 L 39.925781 167.730469 C 37.941406 167.730469 36.425781 167.410156 35.34375 166.753906 C 34.238281 166.074219 33.6875 165.171875 33.6875 164.039062 C 33.6875 163.476562 33.835938 162.871094 34.113281 162.210938 C 34.484375 161.449219 35.003906 160.8125 35.683594 160.304688 C 36.339844 159.773438 37 159.316406 37.675781 158.945312 C 39.171875 158.097656 40.394531 157.140625 41.328125 156.058594 C 42.28125 154.957031 43.089844 153.28125 43.746094 151.007812 L 61.230469 89.855469 C 61.589844 88.613281 61.78125 87.425781 61.78125 86.292969 C 61.78125 85.253906 61.613281 84.371094 61.273438 83.660156 C 60.953125 82.960938 60.519531 82.132812 59.957031 81.199219 C 59.554688 80.722656 59.214844 80.222656 58.9375 79.714844 C 58.652344 79.183594 58.515625 78.632812 58.515625 78.058594 C 58.515625 77.890625 58.609375 77.421875 58.8125 76.660156 C 59.171875 75.417969 60.019531 74.535156 61.359375 74.027344 C 62.683594 73.519531 64.667969 73.261719 67.300781 73.261719 L 100.65625 73.261719 C 102.628906 73.261719 104.15625 73.59375 105.238281 74.238281 C 106.339844 74.898438 106.894531 75.746094 106.894531 76.785156 C 106.894531 77.273438 106.746094 77.890625 106.46875 78.652344 C 106.183594 79.3125 105.769531 79.90625 105.238281 80.433594 C 104.730469 80.945312 104.261719 81.316406 103.835938 81.539062 C 103.414062 81.773438 103.09375 81.984375 102.902344 82.175781 C 101.398438 83.023438 100.167969 83.980469 99.210938 85.019531 C 98.277344 86.070312 97.484375 87.679688 96.835938 89.855469 L 90.171875 113.113281 L 115.253906 113.113281 L 121.914062 89.855469 C 122.308594 88.613281 122.511719 87.425781 122.511719 86.292969 C 122.511719 85.253906 122.339844 84.371094 122 83.660156 C 121.660156 82.960938 121.207031 82.132812 120.644531 81.199219 C 120.273438 80.722656 119.941406 80.222656 119.667969 79.714844 C 119.378906 79.183594 119.242188 78.632812 119.242188 78.058594 C 119.242188 77.890625 119.339844 77.421875 119.539062 76.660156 C 119.898438 75.417969 120.75 74.535156 122.085938 74.027344 C 123.410156 73.519531 125.394531 73.261719 128.027344 73.261719 Z M 161.382812 73.261719 " fill-opacity="1" fill-rule="nonzero"/><path fill="#ff00c7" d="M 210.613281 92.699219 C 223.453125 92.699219 232.9375 95.308594 239.046875 100.507812 C 245.160156 105.6875 248.214844 112.496094 248.214844 120.921875 C 248.214844 123.753906 247.832031 126.925781 247.066406 130.425781 C 245.253906 138.183594 241.890625 144.972656 236.96875 150.796875 C 232.066406 156.601562 226.039062 161.085938 218.890625 164.25 C 211.761719 167.421875 204.035156 169.003906 195.71875 169.003906 C 182.5625 169.003906 172.824219 166.390625 166.523438 161.152344 C 160.242188 155.890625 157.101562 148.910156 157.101562 140.1875 C 157.101562 137.28125 157.484375 134.023438 158.246094 130.425781 C 160.050781 123.042969 163.476562 116.496094 168.515625 110.777344 C 173.578125 105.070312 179.773438 100.625 187.105469 97.453125 C 194.457031 94.292969 202.296875 92.699219 210.613281 92.699219 Z M 210.191406 105.304688 C 208.207031 105.304688 206.09375 107.085938 203.867188 110.652344 C 201.628906 114.195312 198.996094 120.867188 195.972656 130.679688 C 192.9375 140.527344 191.433594 147.445312 191.433594 151.433594 C 191.433594 153.503906 191.75 154.890625 192.410156 155.59375 C 193.085938 156.304688 193.988281 156.652344 195.125 156.652344 C 197.128906 156.855469 199.199219 155.15625 201.320312 151.5625 C 203.441406 147.976562 206.117188 140.972656 209.339844 130.554688 C 212.25 121.386719 213.710938 114.726562 213.710938 110.566406 C 213.710938 108.59375 213.394531 107.214844 212.777344 106.449219 C 212.183594 105.6875 211.316406 105.304688 210.191406 105.304688 Z M 210.191406 105.304688 " fill-opacity="1" fill-rule="nonzero"/><path fill="#ff00c7" d="M 321.121094 92.105469 C 328.105469 92.105469 333.707031 94.628906 337.929688 99.660156 C 342.140625 104.667969 344.25 111.277344 344.25 119.476562 C 344.25 123.753906 343.722656 127.921875 342.679688 131.996094 C 339.648438 144.199219 334.46875 153.417969 327.148438 159.667969 C 319.816406 165.894531 311.371094 169.003906 301.8125 169.003906 C 296.433594 169.003906 291.777344 168.078125 287.851562 166.242188 C 283.914062 164.410156 280.777344 161.777344 278.429688 158.351562 L 273.296875 162.765625 C 271.3125 164.460938 269.371094 165.722656 267.480469 166.542969 C 265.582031 167.335938 263.40625 167.730469 260.945312 167.730469 L 254.707031 167.730469 C 252.351562 167.730469 250.550781 167.242188 249.277344 166.242188 C 248.003906 165.257812 247.367188 163.8125 247.367188 161.914062 C 247.367188 161.066406 247.515625 160.078125 247.789062 158.945312 L 271.472656 81.878906 C 271.746094 81.03125 271.894531 80.328125 271.894531 79.757812 C 271.894531 78.175781 270.898438 76.660156 268.925781 75.214844 C 267.960938 74.367188 267.289062 73.6875 266.929688 73.179688 C 266.558594 72.667969 266.515625 71.980469 266.804688 71.097656 C 267.449219 68.957031 270.453125 67.058594 275.800781 65.414062 C 281.148438 63.746094 286.75 62.910156 292.605469 62.910156 C 298.089844 62.910156 302.132812 63.96875 304.742188 66.089844 C 307.339844 68.214844 308.644531 71.078125 308.644531 74.664062 C 308.644531 76.648438 308.308594 78.632812 307.628906 80.605469 L 301.6875 99.914062 C 307.171875 94.714844 313.652344 92.105469 321.121094 92.105469 Z M 305.082031 131.148438 C 306.96875 124.699219 307.925781 119.5 307.925781 115.53125 C 307.925781 111.179688 306.652344 108.996094 304.105469 108.996094 C 301.835938 108.996094 299.703125 110.183594 297.699219 112.5625 L 288.488281 142.605469 L 287.640625 145.324219 C 287.152344 146.742188 286.917969 148.199219 286.917969 149.695312 C 286.917969 153.003906 288.488281 154.660156 291.628906 154.660156 C 293.890625 154.660156 296.054688 153.003906 298.121094 149.695312 C 300.210938 146.382812 302.535156 140.207031 305.082031 131.148438 Z M 305.082031 131.148438 " fill-opacity="1" fill-rule="nonzero"/><path fill="#ff00c7" d="M 417.167969 92.105469 C 424.148438 92.105469 429.75 94.628906 433.972656 99.660156 C 438.1875 104.667969 440.296875 111.277344 440.296875 119.476562 C 440.296875 123.753906 439.765625 127.921875 438.726562 131.996094 C 435.691406 144.199219 430.515625 153.417969 423.195312 159.667969 C 415.863281 165.894531 407.417969 169.003906 397.859375 169.003906 C 392.480469 169.003906 387.824219 168.078125 383.898438 166.242188 C 379.960938 164.410156 376.820312 161.777344 374.476562 158.351562 L 369.34375 162.765625 C 367.359375 164.460938 365.417969 165.722656 363.527344 166.542969 C 361.628906 167.335938 359.453125 167.730469 356.992188 167.730469 L 350.753906 167.730469 C 348.398438 167.730469 346.59375 167.242188 345.324219 166.242188 C 344.050781 165.257812 343.414062 163.8125 343.414062 161.914062 C 343.414062 161.066406 343.5625 160.078125 343.835938 158.945312 L 367.515625 81.878906 C 367.792969 81.03125 367.941406 80.328125 367.941406 79.757812 C 367.941406 78.175781 366.945312 76.660156 364.972656 75.214844 C 364.003906 74.367188 363.335938 73.6875 362.976562 73.179688 C 362.605469 72.667969 362.5625 71.980469 362.847656 71.097656 C 363.496094 68.957031 366.5 67.058594 371.847656 65.414062 C 377.191406 63.746094 382.792969 62.910156 388.652344 62.910156 C 394.136719 62.910156 398.179688 63.96875 400.789062 66.089844 C 403.386719 68.214844 404.691406 71.078125 404.691406 74.664062 C 404.691406 76.648438 404.351562 78.632812 403.675781 80.605469 L 397.734375 99.914062 C 403.21875 94.714844 409.699219 92.105469 417.167969 92.105469 Z M 401.128906 131.148438 C 403.015625 124.699219 403.972656 119.5 403.972656 115.53125 C 403.972656 111.179688 402.699219 108.996094 400.152344 108.996094 C 397.882812 108.996094 395.75 110.183594 393.742188 112.5625 L 384.535156 142.605469 L 383.6875 145.324219 C 383.199219 146.742188 382.964844 148.199219 382.964844 149.695312 C 382.964844 153.003906 384.535156 154.660156 387.675781 154.660156 C 389.933594 154.660156 392.097656 153.003906 394.167969 149.695312 C 396.257812 146.382812 398.582031 140.207031 401.128906 131.148438 Z M 401.128906 131.148438 " fill-opacity="1" fill-rule="nonzero"/><path fill="#ff00c7" d="M 478.160156 92.699219 C 483.648438 92.699219 487.667969 93.75 490.214844 95.839844 C 492.78125 97.910156 494.074219 100.742188 494.074219 104.328125 C 494.074219 106.511719 493.734375 108.59375 493.058594 110.566406 L 480.027344 152.960938 C 479.742188 154.097656 479.605469 155.105469 479.605469 155.972656 C 479.605469 157.195312 479.828125 158.160156 480.285156 158.859375 C 480.761719 159.570312 481.429688 160.261719 482.277344 160.9375 C 482.957031 161.597656 483.433594 162.128906 483.722656 162.550781 C 483.996094 162.976562 484.039062 163.515625 483.847656 164.164062 C 483.359375 165.417969 482.417969 166.316406 481.003906 166.878906 C 479.582031 167.453125 477.410156 167.730469 474.46875 167.730469 L 442.132812 167.730469 C 439.671875 167.730469 437.878906 167.335938 436.742188 166.542969 C 435.617188 165.722656 435.234375 164.652344 435.597656 163.316406 C 436 162.191406 436.988281 161.195312 438.566406 160.34375 C 440.011719 159.582031 441.199219 158.691406 442.132812 157.671875 C 443.066406 156.632812 443.871094 154.976562 444.550781 152.707031 L 456.902344 111.710938 C 457.175781 110.84375 457.324219 110.121094 457.324219 109.546875 C 457.324219 108.527344 457.082031 107.710938 456.601562 107.085938 C 456.117188 106.472656 455.414062 105.835938 454.480469 105.175781 C 453.515625 104.414062 452.847656 103.753906 452.488281 103.183594 C 452.117188 102.621094 452.074219 101.855469 452.359375 100.890625 C 452.921875 98.746094 455.894531 96.847656 461.273438 95.203125 C 466.671875 93.539062 472.304688 92.699219 478.160156 92.699219 Z M 487.667969 61.339844 C 491.371094 61.339844 494.4375 62.546875 496.875 64.945312 C 499.339844 67.355469 500.570312 70.3125 500.570312 73.816406 C 500.570312 76.277344 499.933594 78.695312 498.660156 81.070312 C 497.386719 83.425781 495.582031 85.335938 493.269531 86.800781 C 490.945312 88.277344 488.367188 89.007812 485.546875 89.007812 C 481.949219 89.007812 478.945312 87.808594 476.550781 85.402344 C 474.140625 82.972656 472.878906 79.957031 472.773438 76.363281 C 472.773438 74.015625 473.375 71.683594 474.597656 69.359375 C 475.839844 67.046875 477.589844 65.136719 479.859375 63.628906 C 482.152344 62.101562 484.75 61.339844 487.667969 61.339844 Z M 487.667969 61.339844 " fill-opacity="1" fill-rule="nonzero"/><path fill="#ff00c7" d="M 530.085938 92.699219 C 535.570312 92.699219 539.59375 93.75 542.136719 95.839844 C 544.707031 97.910156 546 100.742188 546 104.328125 C 546 106.511719 545.660156 108.59375 544.980469 110.566406 L 531.953125 152.960938 C 531.667969 154.097656 531.527344 155.105469 531.527344 155.972656 C 531.527344 157.195312 531.75 158.160156 532.207031 158.859375 C 532.683594 159.570312 533.355469 160.261719 534.203125 160.9375 C 534.882812 161.597656 535.359375 162.128906 535.644531 162.550781 C 535.921875 162.976562 535.964844 163.515625 535.773438 164.164062 C 535.285156 165.417969 534.339844 166.316406 532.929688 166.878906 C 531.507812 167.453125 529.332031 167.730469 526.394531 167.730469 L 494.058594 167.730469 C 491.59375 167.730469 489.800781 167.335938 488.667969 166.542969 C 487.542969 165.722656 487.160156 164.652344 487.519531 163.316406 C 487.925781 162.191406 488.910156 161.195312 490.492188 160.34375 C 491.933594 159.582031 493.125 158.691406 494.058594 157.671875 C 494.992188 156.632812 495.796875 154.976562 496.476562 152.707031 L 508.824219 111.710938 C 509.101562 110.84375 509.25 110.121094 509.25 109.546875 C 509.25 108.527344 509.003906 107.710938 508.527344 107.085938 C 508.039062 106.472656 507.339844 105.835938 506.40625 105.175781 C 505.441406 104.414062 504.773438 103.753906 504.410156 103.183594 C 504.039062 102.621094 503.996094 101.855469 504.285156 100.890625 C 504.847656 98.746094 507.816406 96.847656 513.195312 95.203125 C 518.597656 93.539062 524.230469 92.699219 530.085938 92.699219 Z M 539.59375 61.339844 C 543.292969 61.339844 546.359375 62.546875 548.800781 64.945312 C 551.261719 67.355469 552.492188 70.3125 552.492188 73.816406 C 552.492188 76.277344 551.855469 78.695312 550.582031 81.070312 C 549.308594 83.425781 547.507812 85.335938 545.195312 86.800781 C 542.871094 88.277344 540.292969 89.007812 537.46875 89.007812 C 533.875 89.007812 530.871094 87.808594 528.472656 85.402344 C 526.066406 82.972656 524.804688 79.957031 524.695312 76.363281 C 524.695312 74.015625 525.300781 71.683594 526.519531 69.359375 C 527.761719 67.046875 529.511719 65.136719 531.785156 63.628906 C 534.074219 62.101562 536.675781 61.339844 539.59375 61.339844 Z M 539.59375 61.339844 " fill-opacity="1" fill-rule="nonzero"/><path fill="#ff00c7" d="M 592.789062 91.976562 C 604.808594 91.976562 613.511719 93.910156 618.890625 97.75 C 624.289062 101.570312 626.996094 106.449219 626.996094 112.390625 C 626.996094 114.203125 626.804688 115.859375 626.441406 117.355469 C 625 123.617188 621.03125 128.082031 614.558594 130.765625 C 608.078125 133.460938 600.449219 134.796875 591.6875 134.796875 C 587.210938 134.796875 583.039062 134.523438 579.167969 133.949219 C 579.082031 138.871094 580.410156 142.339844 583.15625 144.347656 C 585.894531 146.332031 589.734375 147.316406 594.65625 147.316406 C 596.917969 147.316406 599.082031 147.0625 601.148438 146.554688 C 603.238281 146.023438 605.902344 145.226562 609.128906 144.175781 C 611.757812 143.242188 613.550781 142.777344 614.519531 142.777344 C 615.558594 142.777344 616.089844 143.390625 616.089844 144.601562 C 616.171875 147.910156 614.921875 151.390625 612.351562 155.039062 C 609.808594 158.691406 606.03125 161.789062 601.023438 164.335938 C 596.015625 166.878906 589.957031 168.152344 582.859375 168.152344 C 572.355469 168.152344 563.742188 165.511719 557.015625 160.21875 C 550.308594 154.933594 546.957031 147.222656 546.957031 137.089844 C 546.957031 134.265625 547.339844 130.957031 548.101562 127.160156 C 550.480469 115.53125 555.65625 106.769531 563.636719 100.847656 C 571.632812 94.9375 581.351562 91.976562 592.789062 91.976562 Z M 580.1875 125.460938 C 580.546875 125.546875 581.078125 125.589844 581.757812 125.589844 C 585.714844 125.589844 588.726562 123.753906 590.796875 120.070312 C 592.886719 116.371094 593.894531 112.253906 593.808594 107.722656 C 593.691406 105.070312 592.925781 103.734375 591.515625 103.734375 C 590.464844 103.734375 589.234375 104.570312 587.824219 106.238281 C 586.402344 107.882812 585.003906 110.355469 583.625 113.664062 C 582.265625 116.972656 581.121094 120.910156 580.1875 125.460938 Z M 580.1875 125.460938 " fill-opacity="1" fill-rule="nonzero"/><path fill="#ff00c7" d="M 670.835938 91.382812 C 678.667969 91.382812 685.445312 92.105469 691.164062 93.546875 C 696.902344 94.96875 701.308594 96.945312 704.363281 99.488281 C 707.4375 102.035156 708.988281 104.921875 708.988281 108.148438 C 708.988281 111.457031 707.683594 114.164062 705.082031 116.253906 C 702.472656 118.320312 698.855469 119.351562 694.21875 119.351562 C 689.488281 119.351562 685.5 118.183594 682.253906 115.828125 C 678.996094 113.453125 677.371094 110.46875 677.371094 106.875 C 677.371094 105.632812 677.550781 104.445312 677.921875 103.308594 C 676.226562 102.863281 674.710938 102.628906 673.382812 102.628906 C 671.007812 102.628906 669.03125 103.203125 667.484375 104.328125 C 665.925781 105.460938 665.191406 107.066406 665.277344 109.125 C 665.277344 111.585938 666.507812 113.683594 668.96875 115.402344 C 671.429688 117.101562 675.398438 119.222656 680.894531 121.769531 C 685.617188 123.839844 689.519531 125.746094 692.605469 127.5 C 695.683594 129.257812 698.292969 131.464844 700.414062 134.117188 C 702.539062 136.75 703.597656 139.867188 703.597656 143.453125 C 703.597656 144.21875 703.40625 145.652344 703.046875 147.742188 C 701.519531 154.085938 697.296875 159.09375 690.398438 162.765625 C 683.492188 166.445312 674.410156 168.28125 663.15625 168.28125 C 650.476562 168.28125 640.429688 166.582031 633.023438 163.1875 C 625.609375 159.792969 621.90625 155.113281 621.90625 149.140625 C 621.90625 145.066406 623.125 142 625.554688 139.933594 C 628.015625 137.84375 631.285156 136.792969 635.359375 136.792969 C 640.082031 136.792969 644.121094 138.265625 647.496094 141.207031 C 650.859375 144.125 652.546875 147.859375 652.546875 152.410156 C 652.546875 153.628906 652.398438 154.902344 652.121094 156.230469 C 654.382812 156.800781 656.546875 157.078125 658.613281 157.078125 C 661.074219 157.078125 663.113281 156.429688 664.726562 155.125 C 666.339844 153.800781 667.144531 151.941406 667.144531 149.566406 C 667.058594 147.390625 665.96875 145.523438 663.875 143.964844 C 661.777344 142.414062 658.464844 140.546875 653.945312 138.363281 C 649.703125 136.390625 646.203125 134.523438 643.464844 132.761719 C 640.714844 131.011719 638.371094 128.8125 636.417969 126.183594 C 634.488281 123.53125 633.535156 120.402344 633.535156 116.804688 C 633.535156 109.058594 636.769531 102.886719 643.253906 98.300781 C 649.722656 93.695312 658.921875 91.382812 670.835938 91.382812 Z M 670.835938 91.382812 " fill-opacity="1" fill-rule="nonzero"/><g clip-path="url(#d829b7121f)"><g clip-path="url(#2c8b2c8ae9)"><g clip-path="url(#276f2381ad)"><path fill="#ffffff" d="M 446.085938 40.183594 L 506.421875 15.113281 L 531.492188 75.4375 L 471.167969 100.519531 Z M 446.085938 40.183594 " fill-opacity="1" fill-rule="nonzero"/></g></g></g><g clip-path="url(#a16d8a3a83)"><g clip-path="url(#9fd57a6590)"><g clip-path="url(#8a93f05d45)"><path fill="#ffffff" d="M 494.613281 40.183594 L 554.949219 15.113281 L 580.03125 75.4375 L 519.695312 100.519531 Z M 494.613281 40.183594 " fill-opacity="1" fill-rule="nonzero"/></g></g></g><g clip-path="url(#6bbd9c5094)"><g clip-path="url(#501eea3e2a)"><g clip-path="url(#60a000d0b7)"><path fill="#ff00c7" d="M 528.332031 15.804688 C 514.550781 15.421875 503.070312 26.273438 502.675781 40.066406 C 502.613281 42.359375 502.867188 44.585938 503.386719 46.707031 C 503.84375 48.554688 504.503906 50.335938 505.339844 52.003906 C 505.542969 52.40625 505.753906 52.796875 505.988281 53.191406 L 523.886719 86.300781 C 523.929688 86.375 523.960938 86.449219 524.003906 86.515625 C 524.5 87.277344 525.351562 87.789062 526.324219 87.820312 C 527.300781 87.851562 528.183594 87.375 528.714844 86.640625 L 528.796875 86.503906 L 548.5625 54.378906 L 549.273438 53.222656 C 550.207031 51.609375 550.960938 49.871094 551.511719 48.054688 C 552.148438 45.953125 552.53125 43.75 552.59375 41.457031 C 552.976562 27.675781 542.125 16.183594 528.332031 15.804688 Z M 527.34375 51.226562 C 521.5625 51.058594 517.011719 46.242188 517.171875 40.46875 C 517.328125 34.6875 522.144531 30.136719 527.929688 30.296875 C 533.710938 30.453125 538.261719 35.269531 538.101562 41.054688 C 537.941406 46.824219 533.125 51.386719 527.34375 51.226562 Z M 527.34375 51.226562 " fill-opacity="1" fill-rule="nonzero"/></g></g></g><g clip-path="url(#5b3d5f79a5)"><g clip-path="url(#11c9956ba5)"><g clip-path="url(#218434cb7d)"><path fill="#ffffff" d="M 527.820312 30.316406 C 521.53125 30.136719 516.289062 35.101562 516.109375 41.394531 C 516.078125 42.433594 516.195312 43.453125 516.4375 44.425781 C 516.640625 45.265625 516.9375 46.070312 517.320312 46.835938 C 517.414062 47.015625 517.507812 47.195312 517.617188 47.375 L 525.796875 62.496094 C 525.804688 62.527344 525.828125 62.558594 525.839844 62.589844 C 526.070312 62.941406 526.453125 63.175781 526.898438 63.183594 C 527.34375 63.207031 527.746094 62.984375 527.992188 62.652344 L 528.035156 62.589844 L 537.050781 47.929688 L 537.382812 47.398438 C 537.804688 46.65625 538.144531 45.871094 538.398438 45.03125 C 538.695312 44.078125 538.867188 43.070312 538.898438 42.03125 C 539.066406 35.738281 534.113281 30.488281 527.820312 30.316406 Z M 527.367188 46.484375 C 524.734375 46.410156 522.65625 44.214844 522.730469 41.574219 C 522.792969 38.933594 525 36.851562 527.632812 36.925781 C 530.273438 37 532.351562 39.195312 532.277344 41.839844 C 532.203125 44.480469 530.007812 46.558594 527.367188 46.484375 Z M 527.367188 46.484375 " fill-opacity="1" fill-rule="nonzero"/></g></g></g></svg>